<svg id="Layer_1" data-name="Layer 1" xmlns="http://www.w3.org/2000/svg" viewBox="0 0 200 200"><defs><style>.cls-1{fill:#414042;}.cls-2,.cls-3{fill:none;stroke-width:8px;}.cls-2,.cls-3,.cls-4,.cls-5,.cls-6,.cls-7,.cls-8,.cls-9{stroke:#fff;}.cls-2,.cls-4,.cls-6,.cls-7,.cls-8,.cls-9{stroke-linecap:round;stroke-linejoin:round;}.cls-3,.cls-5{stroke-miterlimit:10;}.cls-4{fill:#e81f64;}.cls-4,.cls-6,.cls-7,.cls-8,.cls-9{stroke-width:5px;}.cls-5{fill:#fff;}.cls-6{fill:#66499e;}.cls-7{fill:#478fcc;}.cls-8{fill:#0bbcd4;}.cls-9{fill:#4daf4e;}</style></defs><circle id="Background" class="cls-1" cx="100" cy="70" r="70"/><g id="Locate"><path id="path4" class="cls-2" d="M100,28.4V18m0,104V111.6"/><path id="path6" class="cls-3" d="M100,32.56A37.44,37.44,0,1,0,137.44,70,37.44,37.44,0,0,0,100,32.56Z"/><path id="path8" class="cls-2" d="M141.6,70H152M48,70H58.4"/></g><g id="Pin"><circle id="circle4" class="cls-4" cx="11.37" cy="144.87" r="8.83"/><path id="path6-2" data-name="path6" class="cls-5" d="M13.57,154.25A1.23,1.23,0,0,0,12.33,153H10.4a1.24,1.24,0,0,0-1.24,1.24v40.49a4.53,4.53,0,0,0,.34,1.71l1.39,3.31a.54.54,0,0,0,.74.21.47.47,0,0,0,.21-.21l1.39-3.31a4.35,4.35,0,0,0,.34-1.71Z"/><circle id="circle8" class="cls-5" cx="14.68" cy="141.56" r="3.31"/></g><g id="Pin-2" data-name="Pin"><circle id="circle4-2" data-name="circle4" class="cls-6" cx="54.62" cy="144.8" r="8.83"/><path id="path6-3" data-name="path6" class="cls-5" d="M56.83,154.18a1.25,1.25,0,0,0-1.24-1.24H53.66a1.25,1.25,0,0,0-1.25,1.24v40.5a4.35,4.35,0,0,0,.35,1.7l1.39,3.31a.53.53,0,0,0,.73.22.52.52,0,0,0,.22-.22l1.38-3.31a4.35,4.35,0,0,0,.35-1.7Z"/><circle id="circle8-2" data-name="circle8" class="cls-5" cx="57.93" cy="141.49" r="3.31"/></g><g id="Pin-3" data-name="Pin"><circle id="circle4-3" data-name="circle4" class="cls-7" cx="100" cy="144.8" r="8.83"/><path id="path6-4" data-name="path6" class="cls-5" d="M102.21,154.18a1.25,1.25,0,0,0-1.24-1.24H99a1.25,1.25,0,0,0-1.24,1.24v40.5a4.35,4.35,0,0,0,.35,1.7l1.39,3.31a.53.53,0,0,0,.73.22.5.5,0,0,0,.21-.22l1.39-3.31a4.35,4.35,0,0,0,.35-1.7Z"/><circle id="circle8-3" data-name="circle8" class="cls-5" cx="103.31" cy="141.49" r="3.31"/></g><g id="Pin-4" data-name="Pin"><circle id="circle4-4" data-name="circle4" class="cls-8" cx="146.8" cy="144.8" r="8.83"/><path id="path6-5" data-name="path6" class="cls-5" d="M149,154.18a1.25,1.25,0,0,0-1.24-1.24h-1.94a1.25,1.25,0,0,0-1.24,1.24v40.5a4.35,4.35,0,0,0,.35,1.7l1.39,3.31a.53.53,0,0,0,.73.22.5.5,0,0,0,.21-.22l1.39-3.31a4.35,4.35,0,0,0,.35-1.7Z"/><circle id="circle8-4" data-name="circle8" class="cls-5" cx="150.11" cy="141.49" r="3.31"/></g><g id="Pin-5" data-name="Pin"><circle id="circle4-5" data-name="circle4" class="cls-9" cx="188.64" cy="144.8" r="8.83"/><path id="path6-6" data-name="path6" class="cls-5" d="M190.85,154.18a1.25,1.25,0,0,0-1.25-1.24h-1.93a1.25,1.25,0,0,0-1.24,1.24v40.5a4.35,4.35,0,0,0,.35,1.7l1.38,3.31a.55.55,0,0,0,.74.22.5.5,0,0,0,.21-.22l1.39-3.31a4.35,4.35,0,0,0,.35-1.7Z"/><circle id="circle8-5" data-name="circle8" class="cls-5" cx="191.95" cy="141.49" r="3.31"/></g></svg>