<svg id="Layer_1" data-name="Layer 1" xmlns="http://www.w3.org/2000/svg" viewBox="0 0 200 200"><defs><style>.cls-1{fill:#414042;}.cls-2,.cls-3{fill:none;stroke:#fff;stroke-width:6px;}.cls-2{stroke-linecap:round;stroke-linejoin:round;}.cls-3{stroke-miterlimit:10;}</style></defs><circle id="Background" class="cls-1" cx="100" cy="70" r="70"/><g id="Graph"><rect class="cls-2" x="60" y="76.33" width="10" height="33.33" rx="1.67"/><rect class="cls-2" x="106.67" y="56.33" width="10" height="53.33" rx="1.67"/><rect class="cls-2" x="130" y="33" width="10" height="76.67" rx="1.67"/><rect class="cls-2" x="83.33" y="16.33" width="10" height="93.33" rx="1.67"/></g><polyline class="cls-3" points="0 149.59 6.94 125.58 8.33 128.47 9.72 125.58 17.55 137.85 23.15 130.32 27.08 134.72 33.33 115.05 36.11 114.12 39.35 95.83 42.59 155.32 46.06 150.69 50.34 165.28 54.86 164.12 57.41 170.14 64.81 180.32 69.08 175.23 75.46 187.73 78.7 182.87 81.48 185.3 85.88 181.48 90.51 181.48 95.6 188.89 101.16 167.13 105.56 157.99 114.12 156.48 119.91 154.4 125.23 138.43 129.4 149.07 134.67 145.14 138.66 130.56 143.29 135.88 146.53 157.23 150.69 143.75 153.7 155.44 156.48 151.62 162.78 165.97 162.78 164.7 165.97 143.75 170.14 162.56 175 144.68 180.32 155.44 181.25 159.95 185.88 162.56 187.73 167.68 192.59 157.99 196.06 161.26 200 200"/></svg>