<svg id="Layer_1" data-name="Layer 1" xmlns="http://www.w3.org/2000/svg" viewBox="0 0 200 200"><defs><style>.cls-1{fill:#414042;}.cls-2,.cls-3{fill:none;stroke-width:8px;}.cls-2,.cls-3,.cls-5{stroke:#fff;}.cls-2,.cls-5{stroke-miterlimit:10;}.cls-3{stroke-linecap:round;stroke-linejoin:round;}.cls-4,.cls-5{fill:#fff;}.cls-5{stroke-width:0.54px;}</style></defs><circle id="Clock_Background" data-name="Clock Background" class="cls-1" cx="100" cy="70" r="70"/><g id="Clock"><path class="cls-2" d="M100,23.33A46.67,46.67,0,1,0,146.67,70,46.69,46.69,0,0,0,100,23.33Z"/><path class="cls-3" d="M100,38.89v35h23.33"/></g><g id="Slider"><path class="cls-4" d="M4.5,189.05h191c5.21,0,5.22-8.1,0-8.1H4.5c-5.21,0-5.22,8.1,0,8.1Z"/><circle class="cls-5" cx="166" cy="185" r="14"/></g><path class="cls-4" d="M156.62,157.83c0-4.28,1.54-6.58,4.09-6.58s4.09,2.31,4.09,6.58-1.54,6.66-4.09,6.66S156.62,162.1,156.62,157.83Zm6.58,0c0-3.74-1-5.25-2.49-5.25s-2.49,1.51-2.49,5.25,1,5.34,2.49,5.34S163.2,161.57,163.2,157.83Z"/><path class="cls-4" d="M171.48,151.12h2l2.51,7c.32.9.62,1.82.94,2.74H177c.31-.92.59-1.84.9-2.74l2.49-7h2v13.13h-1.55V157c0-1.14.13-2.72.21-3.88H181l-1,3-2.47,6.79h-1.11l-2.48-6.79-1-3h-.08c.08,1.16.21,2.74.21,3.88v7.23h-1.51Z"/><path class="cls-4" d="M185.26,161.73c0-2.12,1.83-3.18,6-3.63,0-1.25-.42-2.46-2-2.46a5.4,5.4,0,0,0-2.9,1.05l-.64-1.13a7.1,7.1,0,0,1,3.82-1.27c2.37,0,3.38,1.58,3.38,4v6h-1.36l-.14-1.16h-.06a5.15,5.15,0,0,1-3.21,1.4A2.64,2.64,0,0,1,185.26,161.73Zm6,.15v-2.7c-3.26.39-4.36,1.19-4.36,2.43a1.49,1.49,0,0,0,1.7,1.56A4,4,0,0,0,191.23,161.88Z"/><path class="cls-4" d="M11.08,155.94c0-.67.05-1.77.09-2.44h-.08c-.32.61-.68,1.17-1,1.8l-3,4.36h7.31V161h-9v-1.09l5.46-8.14h1.83v12.75H11.08Z"/><path class="cls-4" d="M16.51,163.12h2.93v-9.39H17.11v-1.06a7.79,7.79,0,0,0,2.72-.93h1.25v11.38h2.64v1.37H16.51Z"/><path class="cls-4" d="M25.76,158.07c0-4.28,1.54-6.57,4.09-6.57s4.09,2.3,4.09,6.57-1.54,6.66-4.09,6.66S25.76,162.34,25.76,158.07Zm6.58,0c0-3.74-1-5.25-2.49-5.25s-2.49,1.51-2.49,5.25,1,5.34,2.49,5.34S32.34,161.81,32.34,158.07Z"/><path class="cls-4" d="M40.61,151.36h2l2.51,7c.32.9.62,1.82.94,2.74h.08c.31-.92.59-1.84.9-2.74l2.49-7h2v13.13H50v-7.23c0-1.14.13-2.72.21-3.88h-.08l-1,3-2.47,6.79H45.52L43,156.38l-1-3h-.08c.09,1.16.22,2.74.22,3.88v7.23H40.61Z"/><path class="cls-4" d="M54.4,162c0-2.12,1.83-3.18,6-3.63,0-1.25-.42-2.46-2-2.46a5.4,5.4,0,0,0-2.9,1.05l-.64-1.13a7.1,7.1,0,0,1,3.82-1.27c2.37,0,3.38,1.58,3.38,4v6H60.66l-.14-1.16h-.06a5.15,5.15,0,0,1-3.21,1.4A2.64,2.64,0,0,1,54.4,162Zm6,.15v-2.7c-3.26.39-4.36,1.19-4.36,2.43a1.49,1.49,0,0,0,1.7,1.56A4,4,0,0,0,60.37,162.12Z"/></svg>