<?xml version="1.0" encoding="utf-8"?>
<!-- Generator: Adobe Illustrator 26.2.1, SVG Export Plug-In . SVG Version: 6.00 Build 0)  -->
<svg version="1.1" id="Layer_1" xmlns="http://www.w3.org/2000/svg" xmlns:xlink="http://www.w3.org/1999/xlink" x="0px" y="0px"
	 viewBox="0 0 104.8 90.9" style="enable-background:new 0 0 104.8 90.9;" xml:space="preserve">
<style type="text/css">
	.st0{fill:#F9F9FA;fill-opacity:0.9;}
</style>
<path class="st0" d="M76.2,3.9H28.6L4.6,45.4l24.1,41.5h47.6l24.1-41.5L97,39.8l-8.4-0.9l3.4-7.8l-0.7-1.2L82.9,29l3.4-7.7l-0.7-1.2
	l-8.4-0.9l3.4-7.7L76.2,3.9z M77.3,42.9v8c0,3.1-0.6,6.1-2,8.8c-1.3,2.6-3.2,5-5.4,6.9c-4.7,3.9-10.7,6-16.8,6l0,0.2
	c-3.5,0-6.9-0.7-10.1-2.1c-3.1-1.4-5.9-3.3-8.2-5.8c-2.4-2.5-4.2-5.5-5.5-8.7c-1.4-3.4-2-7.1-2-10.8c0-3.6,0.6-7.1,1.9-10.5
	c1.2-3.2,3-6.2,5.3-8.7c2.3-2.6,5.2-4.6,8.4-6c3.5-1.5,7.2-2.2,11-2.2c4.7,0,9.4,1,13.7,3c2.1,0.9,4,2.2,5.8,3.6l-4.9,8
	c-2-1.8-4.2-3.1-6.8-4c-2.5-0.9-5.1-1.4-7.8-1.4c-2.3,0-4.6,0.4-6.7,1.3c-1.9,0.8-3.5,2.1-4.9,3.7c-1.4,1.7-2.4,3.6-3,5.6
	c-1.4,4.7-1.4,9.8,0.1,14.5c0.7,2.1,1.8,4.1,3.2,5.8c1.3,1.6,3,2.8,4.8,3.7c1.9,0.9,3.9,1.3,6,1.3c1.7,0,3.3-0.3,4.9-0.8
	c1.5-0.5,3-1.4,4.3-2.4c1.2-1,2.2-2.2,2.9-3.6c0.7-1.4,1.1-3,1.1-4.5v-0.8H52.9v-8H77.3z"/>
</svg>
