<svg id="Layer_1" data-name="Layer 1" xmlns="http://www.w3.org/2000/svg" viewBox="0 0 200 200"><defs><style>.cls-1{fill:#414042;}.cls-2,.cls-4{fill:none;stroke-linecap:round;}.cls-2,.cls-3,.cls-4,.cls-5{stroke:#fff;stroke-linejoin:round;}.cls-2{stroke-width:8px;}.cls-3{fill:#00aeef;}.cls-3,.cls-4,.cls-5{stroke-width:4px;}.cls-5{fill:#939598;}</style></defs><circle id="Layers_Background" data-name="Layers Background" class="cls-1" cx="100" cy="70" r="70"/><g id="Layers"><path class="cls-2" d="M143.44,41.24l-36.3-16.55a19.61,19.61,0,0,0-14.3,0L56.57,41.24c-4.28,1.94-4.28,5.13,0,7.07l36,16.4a20.65,20.65,0,0,0,15,0l36-16.4c4.26-1.94,4.26-5.13,0-7.07ZM76.66,82.76l-20.09,9c-4.28,1.94-4.28,5.13,0,7.07l36,16.41a20.75,20.75,0,0,0,15,0l36-16.41c4.28-1.94,4.28-5.13,0-7.07L124,82.43"/><path class="cls-2" d="M76.66,57.48l-20.12,9c-4.28,1.94-4.28,5.13,0,7.07l36,16.4a20.65,20.65,0,0,0,15,0l36-16.4c4.31-1.94,4.31-5.13,0-7.07l-20.14-9"/></g><g id="Checkbox_3" data-name="Checkbox 3"><rect class="cls-3" x="82.01" y="158.99" width="36" height="36" rx="4.5"/><path class="cls-4" d="M109,169.49l-12.6,15-5.4-6"/></g><g id="Checkbox_2" data-name="Checkbox 2"><rect class="cls-5" x="135.63" y="158.99" width="36" height="36" rx="4.5"/></g><g id="Checkbox_1" data-name="Checkbox 1"><rect class="cls-3" x="28.38" y="158.99" width="36" height="36" rx="4.5"/><path class="cls-4" d="M55.38,169.49l-12.6,15-5.4-6"/></g></svg>