<svg id="Layer_1" data-name="Layer 1" xmlns="http://www.w3.org/2000/svg" viewBox="0 0 200 200"><defs><style>.cls-1{fill:#231f20;opacity:0.5;}.cls-2{fill:#fff;}.cls-3{fill:#414042;}.cls-4,.cls-5{fill:none;stroke:#fff;stroke-width:2px;}.cls-4{stroke-linecap:round;stroke-linejoin:round;}.cls-5{stroke-miterlimit:10;}</style></defs><circle id="Background" class="cls-1" cx="100" cy="70" r="70"/><g id="Toolbox"><path class="cls-2" d="M137.33,40.66H62.67A9.34,9.34,0,0,0,53.33,50h0v56a9.34,9.34,0,0,0,9.34,9.33h74.66a9.34,9.34,0,0,0,9.34-9.33V50a9.34,9.34,0,0,0-9.34-9.34ZM62.67,50h74.66v56H62.67Z"/><path class="cls-2" d="M118.67,22H81.33a7,7,0,0,0-7,7h0V43a7,7,0,0,0,7,7h37.34a7,7,0,0,0,7-7V29A7,7,0,0,0,118.67,22Zm-2.34,9.33v9.33H83.67V31.33ZM114,89.66V66.33a7,7,0,0,0-7-7H93a7,7,0,0,0-7,7V89.66a7,7,0,0,0,7,7h14A7,7,0,0,0,114,89.66Zm-9.33-2.33H95.34V68.66h9.33Z"/><path class="cls-2" d="M90.67,73.33v9.33H58V73.33Zm51.33,0v9.33H109.33V73.33Z"/></g><circle id="Background-2" data-name="Background" class="cls-3" cx="125.5" cy="176" r="24"/><g id="Graph"><rect class="cls-4" x="111.79" y="178.17" width="3.43" height="11.43" rx="0.57"/><rect class="cls-4" x="127.79" y="171.31" width="3.43" height="18.29" rx="0.57"/><rect class="cls-4" x="135.79" y="163.31" width="3.43" height="26.29" rx="0.57"/><rect class="cls-4" x="119.79" y="157.6" width="3.43" height="32" rx="0.57"/></g><circle id="Background-3" data-name="Background" class="cls-3" cx="176" cy="176" r="24"/><g id="Locate"><path id="path4" class="cls-4" d="M176,161.74v-3.57m0,35.66v-3.57"/><path id="path6" class="cls-5" d="M176,163.16A12.84,12.84,0,1,0,188.84,176,12.84,12.84,0,0,0,176,163.16Z"/><path id="path8" class="cls-4" d="M190.26,176h3.57m-35.66,0h3.57"/></g><circle id="Background-4" data-name="Background" class="cls-3" cx="74.5" cy="176" r="24"/><g id="Layers"><path class="cls-4" d="M89.39,166.14,77,160.47a6.71,6.71,0,0,0-4.91,0l-12.43,5.67c-1.47.67-1.47,1.76,0,2.42l12.33,5.63a7.09,7.09,0,0,0,5.13,0l12.33-5.63c1.46-.66,1.46-1.75,0-2.42ZM66.5,180.38l-6.89,3.09c-1.47.66-1.47,1.76,0,2.42l12.33,5.63a7.09,7.09,0,0,0,5.13,0l12.33-5.63c1.47-.66,1.47-1.76,0-2.42l-6.66-3.21"/><path class="cls-4" d="M66.5,171.71l-6.9,3.09c-1.47.67-1.47,1.76,0,2.43l12.33,5.62a7.09,7.09,0,0,0,5.13,0l12.33-5.62c1.48-.67,1.48-1.76,0-2.43l-6.91-3.09"/></g><circle id="Background-5" data-name="Background" class="cls-3" cx="24" cy="176" r="24"/><g id="Earth"><path id="path4-2" data-name="path4" class="cls-5" d="M40,176a16,16,0,1,0-16,16A16,16,0,0,0,40,176Z"/><path id="path6-2" data-name="path6" class="cls-2" d="M38.6,169.51c-1.23,0-1.11,2.28-2.65,1.21-.57-.4-.92-1-1.64-1.16a4.64,4.64,0,0,0-1.89.12,3.61,3.61,0,0,0-2.07.71c-.52.51-.79,1.2-1.34,1.71a2.74,2.74,0,0,0-.82,3.51,3.58,3.58,0,0,0,3.53,2c1.47-.1,3-1,3,1.18a5.53,5.53,0,0,0,.38,2,7.94,7.94,0,0,1,.25,1.94,9.3,9.3,0,0,0,.93,3.74l1.16-1.63a3.25,3.25,0,0,0,.51-.72,6,6,0,0,0-.15-1.61c0-.47,0-1-.09-1.42-.1-.66-.49-1.28-.54-1.94-.1-1.21.12-2.18-.82-3.2a3.81,3.81,0,0,0-3.5-1c-.63.1-3.2.51-2.17-.95.2-.28.56-.52.79-.79s.37-.68.6-.86a3.09,3.09,0,0,1,1.62-.3c.31.09.63.53.89.73a3.87,3.87,0,0,0,1.68.72c1,.15,3.25-.46,3.23-1.8a7.39,7.39,0,0,0-.84-2.15ZM26.44,180.59c-.41-1.72-2.76-2.3-4-3.23-.73-.54-1.37-1.37-2.33-1.44a6.41,6.41,0,0,1-1.24,0,2.87,2.87,0,0,0-1.14-.26c-.8.1-1.3.95-2.16.84a2.61,2.61,0,0,1-1.83-1.84c-.24-1,.55-1.31,1.39-1.4a2.36,2.36,0,0,1,1.09,0c.44.17.65.6,1.05.82.75.41.9-.24.78-.91-.17-1-.37-1.4.52-2.08.62-.48,1.14-.82,1-1.67-.05-.49-.33-.72-.07-1.22a3.25,3.25,0,0,1,1.07-.94c.89-.58,3.81-.54,2.62-2.17-.35-.47-1-1.33-1.62-1.44s-1.11.71-1.64,1.09-1.64.83-2.19.23c-.75-.82.49-1.08.77-1.65s-.64-1.65-1.13-1.92L15.11,164a3.21,3.21,0,0,0,.64,2.45c.46.59,1.19.78,1.22,1.58a2,2,0,0,1-.59,1.7c-.22.24-.37.56-.6.78s-.17.18-.59.25c-.8.14-1.48.35-2.25.56-1.28.35-1.4-1.74-2-2.56L9,170.28c0,.25.31.72.4,1,.53,1.58,1.59,2.8,2.27,4.32s2.66,1.16,3.51,2.56c.76,1.25-.05,2.83.52,4.13.41,1,1.38,1.15,2,1.85a3.93,3.93,0,0,1,.78,2.56,24.64,24.64,0,0,0,.57,3.18,3,3,0,0,0,.43,1.13c.17.21.75.38.51.45.33.06.92.36,1.19.14s.26-1.21.32-1.62a6.58,6.58,0,0,1,1.63-3.33,26.22,26.22,0,0,0,2.62-2.54,4.54,4.54,0,0,0,.6-3.52Zm-2.57,2c-.46.82-1.49,1.37-2.15,2-.18.18-.56.79-.78.66s-.22-.89-.28-1.08a4.75,4.75,0,0,0-1.67-2.3c-.24-.18-.84-.42-1-.67s0-.91,0-1.21a8.15,8.15,0,0,1-.09-1.54c.13-.45-.11-.18.29-.27a6.65,6.65,0,0,1,1.36.17,2.29,2.29,0,0,1,1,.61,18.25,18.25,0,0,0,2.81,1.78,1.14,1.14,0,0,1,.5,1.82Zm-5.35-21.2a2.07,2.07,0,0,0,1.25.82c.51,0,1-.25,1.45.1s.85.88,1.52,1a1.27,1.27,0,0,0,1.47-.92c.16-.62-.18-1.3-.2-1.93,0-.08,0-.47,0-.53s-.42,0-.47,0c-.42,0-.83,0-1.25.09a15.67,15.67,0,0,0-4.4,1.13,2.06,2.06,0,0,0,.64.24Zm13.22,4.33c.66,0,1.32-.3,1.11-1.05s-.48-1.32-1.21-1c-.47.22-1.13.77-1.19,1.32s.86.71,1.29.71Zm-.52,3.3a1.81,1.81,0,0,0,2.16-.36c.39-.44.62-1.22,1.33-1.22a1.17,1.17,0,0,1,.83.34c.3.3.24.59.3,1,.14.85,1,.05,1.29-.28a1.15,1.15,0,0,0,.29-.82c-.06-.26-.37-.53-.5-.77a8.23,8.23,0,0,0-1.32-2.06,1.2,1.2,0,0,0-1.81.08,6.9,6.9,0,0,0-1.26,1.39,1.21,1.21,0,0,1-.89.69,1.65,1.65,0,0,0-.71.23c-.55.44-.24,1.49.29,1.81Z"/></g></svg>