<?xml version="1.0" standalone="no"?><!DOCTYPE svg PUBLIC "-//W3C//DTD SVG 1.1//EN" "http://www.w3.org/Graphics/SVG/1.1/DTD/svg11.dtd"><svg t="1653626406648" class="icon" viewBox="0 0 1024 1024" version="1.1" xmlns="http://www.w3.org/2000/svg" p-id="9103" xmlns:xlink="http://www.w3.org/1999/xlink" width="200" height="200"><defs><style type="text/css">@font-face { font-family: feedback-iconfont; src: url("//at.alicdn.com/t/font_1031158_u69w8yhxdu.woff2?t=1630033759944") format("woff2"), url("//at.alicdn.com/t/font_1031158_u69w8yhxdu.woff?t=1630033759944") format("woff"), url("//at.alicdn.com/t/font_1031158_u69w8yhxdu.ttf?t=1630033759944") format("truetype"); }
</style></defs><path d="M853.333333 256H170.666667a85.333333 85.333333 0 0 0-85.333334 85.333333v512a85.333333 85.333333 0 0 0 85.333334 85.333334h682.666666a85.333333 85.333333 0 0 0 85.333334-85.333334V341.333333a85.333333 85.333333 0 0 0-85.333334-85.333333zM170.666667 341.333333h682.666666v512H170.666667V341.333333z" p-id="9104"></path><path d="M682.666667 85.333333H341.333333a64 64 0 0 0-64 64v128a64 64 0 0 0 64 64h341.333334a64 64 0 0 0 64-64V149.333333a64 64 0 0 0-64-64z m-21.333334 85.333334v85.333333H362.666667V170.666667h298.666666zM640 704V490.666667a64 64 0 0 0-64-64h-128a64 64 0 0 0-64 64v213.333333a64 64 0 0 0 64 64h128a64 64 0 0 0 64-64z m-85.312-21.333333h-85.333333v-170.666667h85.333333v170.666667z" p-id="9105"></path><path d="M426.666667 554.666667v85.333333H128v-85.333333zM896 554.666667v85.333333H597.333333v-85.333333z" p-id="9106"></path></svg>