<?xml version="1.0" standalone="no"?><!DOCTYPE svg PUBLIC "-//W3C//DTD SVG 1.1//EN" "http://www.w3.org/Graphics/SVG/1.1/DTD/svg11.dtd"><svg
        t="1652183631091" class="icon" viewBox="0 0 1024 1024" version="1.1" xmlns="http://www.w3.org/2000/svg"
        p-id="22277" width="200" height="200" xmlns:xlink="http://www.w3.org/1999/xlink">
    <defs>
        <style type="text/css">@font-face { font-family: feedback-iconfont; src:
            url("//at.alicdn.com/t/font_1031158_u69w8yhxdu.woff2?t=1630033759944") format("woff2"),
            url("//at.alicdn.com/t/font_1031158_u69w8yhxdu.woff?t=1630033759944") format("woff"),
            url("//at.alicdn.com/t/font_1031158_u69w8yhxdu.ttf?t=1630033759944") format("truetype"); }
        </style>
    </defs>
    <path d="M819.2 230.4c14.08 0 25.6-11.52 25.6-25.6s-11.52-25.6-25.6-25.6c-90.112 0-164.608 66.944-177.152 153.6h-25.856c12.672-100.864 98.816-179.2 203.008-179.2 14.08 0 25.6-11.52 25.6-25.6s-11.52-25.6-25.6-25.6c-132.48 0-241.792 101.248-254.72 230.4H460.8V204.8c0-18.944-5.248-36.608-14.336-51.968l19.584-19.584c9.984-9.984 9.984-26.24 0-36.224-9.984-9.984-26.24-9.984-36.224 0l-19.584 19.584c-8.064-4.736-16.896-8.448-26.24-10.88V76.8c0-14.08-11.52-25.6-25.6-25.6s-25.6 11.52-25.6 25.6v28.928c-9.344 2.432-18.176 6.144-26.368 10.88l-19.584-19.584c-9.984-9.984-26.24-9.984-36.224 0-9.984 9.984-9.984 26.24 0 36.224l19.584 19.584A102.528 102.528 0 0 0 256.768 192H204.8c-11.904 0-22.144 8.192-24.96 19.712-2.688 11.52 2.816 23.424 13.44 28.8l62.72 31.36V358.4c0 132.48 101.248 241.792 230.4 254.72V742.4H266.624l33.152-33.152c9.984-9.984 9.984-26.24 0-36.224-9.984-9.984-26.24-9.984-36.224 0l-76.8 76.8c-1.152 1.152-2.304 2.56-3.2 3.968-0.384 0.64-0.64 1.28-1.024 1.92-0.512 0.768-0.896 1.664-1.28 2.56s-0.512 1.664-0.768 2.56c-0.256 0.768-0.512 1.408-0.64 2.176-0.64 3.328-0.64 6.656 0 9.984 0.128 0.768 0.512 1.536 0.64 2.176l0.768 2.56c0.384 0.896 0.896 1.664 1.28 2.56 0.384 0.64 0.64 1.28 1.024 1.92 0.896 1.408 2.048 2.688 3.2 3.968l76.8 76.8a25.5104 25.5104 0 0 0 36.096-0.128c9.984-9.984 9.984-26.24 0-36.224L266.624 793.6H486.4v153.6c0 14.08 11.52 25.6 25.6 25.6s25.6-11.52 25.6-25.6V793.6h194.176l69.248 69.248a25.4848 25.4848 0 0 0 36.224 0c9.984-9.984 9.984-26.24 0-36.224L778.624 768l58.752-58.752c9.984-9.984 9.984-26.24 0-36.224-9.984-9.984-26.24-9.984-36.224 0L731.776 742.4H537.6V613.12c129.152-12.928 230.4-122.112 230.4-254.72 0-28.288 22.912-51.2 51.2-51.2 14.08 0 25.6-11.52 25.6-25.6s-11.52-25.6-25.6-25.6c-47.616 0-87.552 32.768-99.072 76.8H693.76c11.904-58.368 63.616-102.4 125.44-102.4zM556.032 384A50.944 50.944 0 0 1 512 409.6a50.944 50.944 0 0 1-44.032-25.6h88.064z m159.232 0c-12.672 100.864-98.944 179.2-203.264 179.2-112.896 0-204.8-91.904-204.8-204.8V204.8c0-28.288 22.912-51.2 51.2-51.2s51.2 22.912 51.2 51.2v153.856c0.128 56.32 45.952 102.144 102.4 102.144 47.616 0 87.552-32.768 99.072-76.8h104.192z"
          p-id="22278"></path>
    <path d="M358.4 204.8m-25.6 0a25.6 25.6 0 1 0 51.2 0 25.6 25.6 0 1 0-51.2 0Z" p-id="22279"></path>
</svg>